<mxfile host="app.diagrams.net" modified="2022-05-14T15:12:56.844Z" agent="5.0 (Windows NT 10.0; Win64; x64) AppleWebKit/537.36 (KHTML, like Gecko) Chrome/101.0.4951.64 Safari/537.36" etag="-acvM3KTtThf2dEk-qO0" version="17.4.5" type="github">
  <diagram id="C5RBs43oDa-KdzZeNtuy" name="Page-1">
    <mxGraphModel dx="1108" dy="1619" grid="1" gridSize="10" guides="1" tooltips="1" connect="1" arrows="1" fold="1" page="1" pageScale="1" pageWidth="827" pageHeight="1169" math="0" shadow="0">
      <root>
        <mxCell id="WIyWlLk6GJQsqaUBKTNV-0" />
        <mxCell id="WIyWlLk6GJQsqaUBKTNV-1" parent="WIyWlLk6GJQsqaUBKTNV-0" />
        <mxCell id="A8sSo03riaN5_uglDH1m-0" value="" style="edgeStyle=orthogonalEdgeStyle;rounded=0;orthogonalLoop=1;jettySize=auto;html=1;fontSize=12;" edge="1" parent="WIyWlLk6GJQsqaUBKTNV-1">
          <mxGeometry relative="1" as="geometry">
            <mxPoint x="139" y="-800" as="sourcePoint" />
            <mxPoint x="141.5" y="-761" as="targetPoint" />
          </mxGeometry>
        </mxCell>
        <mxCell id="A8sSo03riaN5_uglDH1m-1" value="AX &lt;font&gt;&lt;font style=&quot;font-size: 12px&quot;&gt;&amp;lt;&lt;/font&gt;&lt;span style=&quot;font-size: 13px&quot;&gt;---&lt;/span&gt;&lt;/font&gt;&amp;nbsp; 0700h&lt;br&gt;DS&amp;nbsp;&lt;font style=&quot;font-size: 10px&quot;&gt;&amp;lt;&lt;/font&gt;&lt;font style=&quot;font-size: 13px&quot;&gt;---&lt;/font&gt;&amp;nbsp; AX&lt;br&gt;DI&amp;nbsp;&lt;font style=&quot;font-size: 10px&quot;&gt;&amp;lt;&lt;/font&gt;&lt;font style=&quot;font-size: 13px&quot;&gt;---&lt;/font&gt;&amp;nbsp; 0h&lt;br&gt;SI&amp;nbsp;&lt;font style=&quot;font-size: 10px&quot;&gt;&amp;lt;&lt;/font&gt;&lt;font style=&quot;font-size: 13px&quot;&gt;---&lt;/font&gt;&amp;nbsp; OFFSET NUMBER&lt;br&gt;CX&amp;nbsp;&lt;font style=&quot;font-size: 10px&quot;&gt;&amp;lt;&lt;/font&gt;&lt;font style=&quot;font-size: 13px&quot;&gt;---&lt;/font&gt;&amp;nbsp; 16" style="rounded=1;whiteSpace=wrap;html=1;fontSize=12;glass=0;strokeWidth=1;shadow=0;" vertex="1" parent="WIyWlLk6GJQsqaUBKTNV-1">
          <mxGeometry x="65" y="-880" width="150" height="80" as="geometry" />
        </mxCell>
        <mxCell id="A8sSo03riaN5_uglDH1m-2" value="Yes" style="rounded=0;html=1;jettySize=auto;orthogonalLoop=1;fontSize=11;endArrow=block;endFill=0;endSize=8;strokeWidth=1;shadow=0;labelBackgroundColor=none;edgeStyle=orthogonalEdgeStyle;entryX=0;entryY=0.5;entryDx=0;entryDy=0;" edge="1" parent="WIyWlLk6GJQsqaUBKTNV-1" source="A8sSo03riaN5_uglDH1m-4" target="A8sSo03riaN5_uglDH1m-14">
          <mxGeometry x="-0.8925" y="10" relative="1" as="geometry">
            <mxPoint as="offset" />
            <mxPoint x="240" y="-840" as="targetPoint" />
            <Array as="points">
              <mxPoint x="230" y="-600" />
              <mxPoint x="230" y="-830" />
            </Array>
          </mxGeometry>
        </mxCell>
        <mxCell id="A8sSo03riaN5_uglDH1m-3" value="No" style="edgeStyle=orthogonalEdgeStyle;rounded=0;html=1;jettySize=auto;orthogonalLoop=1;fontSize=11;endArrow=block;endFill=0;endSize=8;strokeWidth=1;shadow=0;labelBackgroundColor=none;exitX=0;exitY=0.5;exitDx=0;exitDy=0;" edge="1" parent="WIyWlLk6GJQsqaUBKTNV-1" source="A8sSo03riaN5_uglDH1m-4">
          <mxGeometry x="-0.8569" y="-10" relative="1" as="geometry">
            <mxPoint as="offset" />
            <mxPoint x="142" y="-780" as="targetPoint" />
            <Array as="points">
              <mxPoint x="50" y="-600" />
              <mxPoint x="50" y="-780" />
            </Array>
            <mxPoint x="94.5" y="-600" as="sourcePoint" />
          </mxGeometry>
        </mxCell>
        <mxCell id="A8sSo03riaN5_uglDH1m-4" value="ZF = 0" style="rhombus;whiteSpace=wrap;html=1;shadow=0;fontFamily=Helvetica;fontSize=12;align=center;strokeWidth=1;spacing=6;spacingTop=-4;" vertex="1" parent="WIyWlLk6GJQsqaUBKTNV-1">
          <mxGeometry x="92.5" y="-640" width="100" height="80" as="geometry" />
        </mxCell>
        <mxCell id="A8sSo03riaN5_uglDH1m-5" style="edgeStyle=orthogonalEdgeStyle;rounded=0;orthogonalLoop=1;jettySize=auto;html=1;entryX=0.5;entryY=0;entryDx=0;entryDy=0;" edge="1" parent="WIyWlLk6GJQsqaUBKTNV-1" source="A8sSo03riaN5_uglDH1m-6" target="A8sSo03riaN5_uglDH1m-9">
          <mxGeometry relative="1" as="geometry" />
        </mxCell>
        <mxCell id="A8sSo03riaN5_uglDH1m-6" value="START" style="ellipse;whiteSpace=wrap;html=1;" vertex="1" parent="WIyWlLk6GJQsqaUBKTNV-1">
          <mxGeometry x="80" y="-1020" width="120" height="40" as="geometry" />
        </mxCell>
        <mxCell id="A8sSo03riaN5_uglDH1m-7" style="edgeStyle=orthogonalEdgeStyle;rounded=0;orthogonalLoop=1;jettySize=auto;html=1;exitX=0.5;exitY=1;exitDx=0;exitDy=0;fontSize=9;" edge="1" parent="WIyWlLk6GJQsqaUBKTNV-1" source="A8sSo03riaN5_uglDH1m-1" target="A8sSo03riaN5_uglDH1m-1">
          <mxGeometry relative="1" as="geometry" />
        </mxCell>
        <mxCell id="A8sSo03riaN5_uglDH1m-8" style="edgeStyle=orthogonalEdgeStyle;rounded=0;orthogonalLoop=1;jettySize=auto;html=1;entryX=0.5;entryY=0;entryDx=0;entryDy=0;fontSize=9;" edge="1" parent="WIyWlLk6GJQsqaUBKTNV-1" source="A8sSo03riaN5_uglDH1m-9" target="A8sSo03riaN5_uglDH1m-1">
          <mxGeometry relative="1" as="geometry" />
        </mxCell>
        <mxCell id="A8sSo03riaN5_uglDH1m-9" value="NUMBER&amp;nbsp;&lt;font style=&quot;font-size: 10px&quot;&gt;&amp;lt;&lt;/font&gt;&lt;font style=&quot;font-size: 13px&quot;&gt;---&lt;/font&gt;&amp;nbsp; 5, 10, 15, 20, 25, 30, 35, 40, 50, 55, 60, 65, 70, 75, 80, 85" style="rounded=1;whiteSpace=wrap;html=1;fontSize=12;glass=0;strokeWidth=1;shadow=0;" vertex="1" parent="WIyWlLk6GJQsqaUBKTNV-1">
          <mxGeometry x="30" y="-960" width="220" height="60" as="geometry" />
        </mxCell>
        <mxCell id="A8sSo03riaN5_uglDH1m-10" value="" style="edgeStyle=orthogonalEdgeStyle;rounded=0;orthogonalLoop=1;jettySize=auto;html=1;fontSize=12;" edge="1" parent="WIyWlLk6GJQsqaUBKTNV-1" source="A8sSo03riaN5_uglDH1m-11">
          <mxGeometry relative="1" as="geometry">
            <mxPoint x="142.5" y="-640" as="targetPoint" />
            <Array as="points">
              <mxPoint x="140" y="-680" />
              <mxPoint x="140" y="-680" />
            </Array>
          </mxGeometry>
        </mxCell>
        <mxCell id="A8sSo03riaN5_uglDH1m-11" value="AH&amp;nbsp;&lt;font style=&quot;font-size: 10px&quot;&gt;&amp;lt;&lt;/font&gt;&lt;font style=&quot;font-size: 13px&quot;&gt;---&lt;/font&gt;&amp;nbsp; [SI]&lt;br&gt;[DI]&amp;nbsp;&lt;font style=&quot;font-size: 10px&quot;&gt;&amp;lt;&lt;/font&gt;&lt;font style=&quot;font-size: 13px&quot;&gt;---&lt;/font&gt;&amp;nbsp; AH&lt;br&gt;SI&amp;nbsp;&lt;font style=&quot;font-size: 10px&quot;&gt;&amp;lt;&lt;/font&gt;&lt;font style=&quot;font-size: 13px&quot;&gt;---&lt;/font&gt;&amp;nbsp; SI + 1&lt;br&gt;DI&amp;nbsp;&lt;font style=&quot;font-size: 10px&quot;&gt;&amp;lt;&lt;/font&gt;&lt;font style=&quot;font-size: 13px&quot;&gt;---&lt;/font&gt;&amp;nbsp; DI + 1&lt;br&gt;CX&amp;nbsp;&lt;font style=&quot;font-size: 10px&quot;&gt;&amp;lt;&lt;/font&gt;&lt;font style=&quot;font-size: 13px&quot;&gt;---&lt;/font&gt;&amp;nbsp;CX - 1" style="rounded=1;whiteSpace=wrap;html=1;fontSize=12;glass=0;strokeWidth=1;shadow=0;" vertex="1" parent="WIyWlLk6GJQsqaUBKTNV-1">
          <mxGeometry x="65" y="-761" width="135" height="81" as="geometry" />
        </mxCell>
        <mxCell id="A8sSo03riaN5_uglDH1m-12" value="END" style="ellipse;whiteSpace=wrap;html=1;" vertex="1" parent="WIyWlLk6GJQsqaUBKTNV-1">
          <mxGeometry x="670" y="-480" width="120" height="40" as="geometry" />
        </mxCell>
        <mxCell id="A8sSo03riaN5_uglDH1m-13" value="" style="edgeStyle=orthogonalEdgeStyle;rounded=0;orthogonalLoop=1;jettySize=auto;html=1;fontSize=13;" edge="1" parent="WIyWlLk6GJQsqaUBKTNV-1" source="A8sSo03riaN5_uglDH1m-14" target="A8sSo03riaN5_uglDH1m-20">
          <mxGeometry relative="1" as="geometry" />
        </mxCell>
        <mxCell id="A8sSo03riaN5_uglDH1m-14" value="DI&amp;nbsp;&lt;font style=&quot;font-size: 10px&quot;&gt;&amp;lt;&lt;/font&gt;&lt;font style=&quot;font-size: 13px&quot;&gt;---&lt;/font&gt;&amp;nbsp; 10h&lt;br&gt;SI&amp;nbsp;&lt;font style=&quot;font-size: 10px&quot;&gt;&amp;lt;&lt;/font&gt;&lt;font style=&quot;font-size: 13px&quot;&gt;---&lt;/font&gt;&amp;nbsp; OFFSET NUMBER&lt;br&gt;CX&amp;nbsp;&lt;font style=&quot;font-size: 10px&quot;&gt;&amp;lt;&lt;/font&gt;&lt;font style=&quot;font-size: 13px&quot;&gt;---&lt;/font&gt;&amp;nbsp; 16" style="rounded=1;whiteSpace=wrap;html=1;fontSize=12;glass=0;strokeWidth=1;shadow=0;" vertex="1" parent="WIyWlLk6GJQsqaUBKTNV-1">
          <mxGeometry x="250" y="-860" width="150" height="60" as="geometry" />
        </mxCell>
        <mxCell id="A8sSo03riaN5_uglDH1m-15" value="Yes" style="rounded=0;html=1;jettySize=auto;orthogonalLoop=1;fontSize=11;endArrow=block;endFill=0;endSize=8;strokeWidth=1;shadow=0;labelBackgroundColor=none;edgeStyle=orthogonalEdgeStyle;entryX=0;entryY=0.5;entryDx=0;entryDy=0;" edge="1" parent="WIyWlLk6GJQsqaUBKTNV-1" source="A8sSo03riaN5_uglDH1m-17" target="A8sSo03riaN5_uglDH1m-22">
          <mxGeometry x="-0.9269" y="20" relative="1" as="geometry">
            <mxPoint as="offset" />
            <mxPoint x="500" y="-950" as="targetPoint" />
            <Array as="points">
              <mxPoint x="410" y="-510" />
              <mxPoint x="410" y="-960" />
            </Array>
          </mxGeometry>
        </mxCell>
        <mxCell id="A8sSo03riaN5_uglDH1m-16" value="No" style="edgeStyle=orthogonalEdgeStyle;rounded=0;html=1;jettySize=auto;orthogonalLoop=1;fontSize=11;endArrow=block;endFill=0;endSize=8;strokeWidth=1;shadow=0;labelBackgroundColor=none;exitX=0;exitY=0.5;exitDx=0;exitDy=0;" edge="1" parent="WIyWlLk6GJQsqaUBKTNV-1">
          <mxGeometry x="-0.9026" y="-10" relative="1" as="geometry">
            <mxPoint as="offset" />
            <mxPoint x="326" y="-780" as="targetPoint" />
            <Array as="points">
              <mxPoint x="236" y="-510" />
              <mxPoint x="236" y="-780" />
            </Array>
            <mxPoint x="281.5" y="-510" as="sourcePoint" />
          </mxGeometry>
        </mxCell>
        <mxCell id="A8sSo03riaN5_uglDH1m-17" value="ZF = 0" style="rhombus;whiteSpace=wrap;html=1;shadow=0;fontFamily=Helvetica;fontSize=12;align=center;strokeWidth=1;spacing=6;spacingTop=-4;" vertex="1" parent="WIyWlLk6GJQsqaUBKTNV-1">
          <mxGeometry x="275" y="-550" width="100" height="80" as="geometry" />
        </mxCell>
        <mxCell id="A8sSo03riaN5_uglDH1m-18" style="edgeStyle=orthogonalEdgeStyle;rounded=0;orthogonalLoop=1;jettySize=auto;html=1;exitX=0.5;exitY=1;exitDx=0;exitDy=0;fontSize=9;" edge="1" parent="WIyWlLk6GJQsqaUBKTNV-1" source="A8sSo03riaN5_uglDH1m-14" target="A8sSo03riaN5_uglDH1m-14">
          <mxGeometry relative="1" as="geometry" />
        </mxCell>
        <mxCell id="A8sSo03riaN5_uglDH1m-19" value="" style="edgeStyle=orthogonalEdgeStyle;rounded=0;orthogonalLoop=1;jettySize=auto;html=1;" edge="1" parent="WIyWlLk6GJQsqaUBKTNV-1" source="A8sSo03riaN5_uglDH1m-20" target="A8sSo03riaN5_uglDH1m-17">
          <mxGeometry relative="1" as="geometry" />
        </mxCell>
        <mxCell id="A8sSo03riaN5_uglDH1m-20" value="AX&amp;nbsp;&lt;font style=&quot;font-size: 10px&quot;&gt;&amp;lt;&lt;/font&gt;&lt;font style=&quot;font-size: 13px&quot;&gt;---&lt;/font&gt;&amp;nbsp; [SI]&lt;br&gt;BX&amp;nbsp;&lt;font style=&quot;font-size: 10px&quot;&gt;&amp;lt;&lt;/font&gt;&lt;font style=&quot;font-size: 13px&quot;&gt;---&lt;/font&gt;&amp;nbsp; 17&lt;br&gt;&lt;font style=&quot;font-size: 10px&quot;&gt;AH&amp;nbsp; &amp;lt;&lt;/font&gt;&lt;font style=&quot;font-size: 13px&quot;&gt;---&amp;nbsp; 0&lt;/font&gt;&lt;br&gt;AX&amp;nbsp;&lt;font style=&quot;font-size: 10px&quot;&gt;&amp;lt;&lt;/font&gt;&lt;font style=&quot;font-size: 13px&quot;&gt;---&lt;/font&gt;&amp;nbsp; AX * BX&lt;br&gt;BX&amp;nbsp;&lt;font style=&quot;font-size: 10px&quot;&gt;&amp;lt;&lt;/font&gt;&lt;font style=&quot;font-size: 13px&quot;&gt;---&lt;/font&gt;&amp;nbsp; 1000&lt;br&gt;AX&amp;nbsp;&lt;font style=&quot;font-size: 10px&quot;&gt;&amp;lt;&lt;/font&gt;&lt;font style=&quot;font-size: 13px&quot;&gt;---&lt;/font&gt;&amp;nbsp; AX / BX&lt;br&gt;AL&amp;nbsp;&lt;font style=&quot;font-size: 10px&quot;&gt;&amp;lt;&lt;/font&gt;&lt;font style=&quot;font-size: 13px&quot;&gt;---&lt;/font&gt;&amp;nbsp; AL + 30h&lt;br&gt;[DI]&amp;nbsp;&lt;font style=&quot;font-size: 10px&quot;&gt;&amp;lt;&lt;/font&gt;&lt;font style=&quot;font-size: 13px&quot;&gt;---&lt;/font&gt;&amp;nbsp; AL&lt;br&gt;SI&amp;nbsp;&lt;font style=&quot;font-size: 10px&quot;&gt;&amp;lt;&lt;/font&gt;&lt;font style=&quot;font-size: 13px&quot;&gt;---&lt;/font&gt;&amp;nbsp; SI + 1&lt;br&gt;DI&amp;nbsp;&lt;font style=&quot;font-size: 10px&quot;&gt;&amp;lt;&lt;/font&gt;&lt;font style=&quot;font-size: 13px&quot;&gt;---&lt;/font&gt;&amp;nbsp; DI + 1&lt;br&gt;CX&amp;nbsp;&lt;font style=&quot;font-size: 10px&quot;&gt;&amp;lt;&lt;/font&gt;&lt;font style=&quot;font-size: 13px&quot;&gt;---&lt;/font&gt;&amp;nbsp; CX - 1" style="rounded=1;whiteSpace=wrap;html=1;fontSize=12;glass=0;strokeWidth=1;shadow=0;" vertex="1" parent="WIyWlLk6GJQsqaUBKTNV-1">
          <mxGeometry x="246.5" y="-761" width="157" height="181" as="geometry" />
        </mxCell>
        <mxCell id="A8sSo03riaN5_uglDH1m-21" value="" style="edgeStyle=orthogonalEdgeStyle;rounded=0;orthogonalLoop=1;jettySize=auto;html=1;fontSize=13;" edge="1" parent="WIyWlLk6GJQsqaUBKTNV-1" source="A8sSo03riaN5_uglDH1m-22" target="A8sSo03riaN5_uglDH1m-28">
          <mxGeometry relative="1" as="geometry" />
        </mxCell>
        <mxCell id="A8sSo03riaN5_uglDH1m-22" value="DI&amp;nbsp;&lt;font style=&quot;font-size: 10px&quot;&gt;&amp;lt;&lt;/font&gt;&lt;font style=&quot;font-size: 13px&quot;&gt;---&lt;/font&gt;&amp;nbsp; 20h&lt;br&gt;SI&amp;nbsp;&lt;font style=&quot;font-size: 10px&quot;&gt;&amp;lt;&lt;/font&gt;&lt;font style=&quot;font-size: 13px&quot;&gt;---&lt;/font&gt;&amp;nbsp;OFFSET NUMBER&lt;br&gt;CX&amp;nbsp;&lt;font style=&quot;font-size: 10px&quot;&gt;&amp;lt;&lt;/font&gt;&lt;font style=&quot;font-size: 13px&quot;&gt;---&lt;/font&gt;&amp;nbsp; 16" style="rounded=1;whiteSpace=wrap;html=1;fontSize=12;glass=0;strokeWidth=1;shadow=0;" vertex="1" parent="WIyWlLk6GJQsqaUBKTNV-1">
          <mxGeometry x="437" y="-990" width="150" height="60" as="geometry" />
        </mxCell>
        <mxCell id="A8sSo03riaN5_uglDH1m-23" value="No" style="edgeStyle=orthogonalEdgeStyle;rounded=0;html=1;jettySize=auto;orthogonalLoop=1;fontSize=11;endArrow=block;endFill=0;endSize=8;strokeWidth=1;shadow=0;labelBackgroundColor=none;exitX=0;exitY=0.5;exitDx=0;exitDy=0;" edge="1" parent="WIyWlLk6GJQsqaUBKTNV-1" source="A8sSo03riaN5_uglDH1m-24">
          <mxGeometry x="-0.8999" y="-10" relative="1" as="geometry">
            <mxPoint as="offset" />
            <mxPoint x="512" y="-910" as="targetPoint" />
            <Array as="points">
              <mxPoint x="422" y="-490" />
              <mxPoint x="422" y="-910" />
            </Array>
            <mxPoint x="470" y="-500" as="sourcePoint" />
          </mxGeometry>
        </mxCell>
        <mxCell id="A8sSo03riaN5_uglDH1m-24" value="ZF = 0" style="rhombus;whiteSpace=wrap;html=1;shadow=0;fontFamily=Helvetica;fontSize=12;align=center;strokeWidth=1;spacing=6;spacingTop=-4;" vertex="1" parent="WIyWlLk6GJQsqaUBKTNV-1">
          <mxGeometry x="471.99999999999994" y="-530" width="100" height="80" as="geometry" />
        </mxCell>
        <mxCell id="A8sSo03riaN5_uglDH1m-25" style="edgeStyle=orthogonalEdgeStyle;rounded=0;orthogonalLoop=1;jettySize=auto;html=1;exitX=0.5;exitY=1;exitDx=0;exitDy=0;fontSize=9;" edge="1" parent="WIyWlLk6GJQsqaUBKTNV-1" source="A8sSo03riaN5_uglDH1m-22" target="A8sSo03riaN5_uglDH1m-22">
          <mxGeometry relative="1" as="geometry" />
        </mxCell>
        <mxCell id="A8sSo03riaN5_uglDH1m-26" value="" style="edgeStyle=orthogonalEdgeStyle;rounded=0;orthogonalLoop=1;jettySize=auto;html=1;" edge="1" parent="WIyWlLk6GJQsqaUBKTNV-1" target="A8sSo03riaN5_uglDH1m-24">
          <mxGeometry relative="1" as="geometry">
            <mxPoint x="521.98" y="-580" as="sourcePoint" />
          </mxGeometry>
        </mxCell>
        <mxCell id="A8sSo03riaN5_uglDH1m-27" value="" style="edgeStyle=orthogonalEdgeStyle;rounded=0;orthogonalLoop=1;jettySize=auto;html=1;fontSize=13;" edge="1" parent="WIyWlLk6GJQsqaUBKTNV-1" source="A8sSo03riaN5_uglDH1m-28" target="A8sSo03riaN5_uglDH1m-29">
          <mxGeometry relative="1" as="geometry">
            <Array as="points">
              <mxPoint x="512" y="-780" />
              <mxPoint x="470" y="-780" />
            </Array>
          </mxGeometry>
        </mxCell>
        <mxCell id="A8sSo03riaN5_uglDH1m-28" value="AX&amp;nbsp;&lt;font style=&quot;font-size: 10px&quot;&gt;&amp;lt;&lt;/font&gt;&lt;font style=&quot;font-size: 13px&quot;&gt;---&lt;/font&gt;&amp;nbsp; [SI]&lt;br&gt;BX&amp;nbsp;&lt;font style=&quot;font-size: 10px&quot;&gt;&amp;lt;&lt;/font&gt;&lt;font style=&quot;font-size: 13px&quot;&gt;---&lt;/font&gt;&amp;nbsp; 17&lt;br&gt;&lt;font style=&quot;font-size: 10px&quot;&gt;AH&amp;nbsp; &amp;lt;&lt;/font&gt;&lt;font style=&quot;font-size: 13px&quot;&gt;---&amp;nbsp; 0&lt;/font&gt;&lt;br&gt;AX&amp;nbsp;&lt;font style=&quot;font-size: 10px&quot;&gt;&amp;lt;&lt;/font&gt;&lt;font style=&quot;font-size: 13px&quot;&gt;---&lt;/font&gt;&amp;nbsp; AX * BX&lt;br&gt;BX&amp;nbsp;&lt;font style=&quot;font-size: 10px&quot;&gt;&amp;lt;&lt;/font&gt;&lt;font style=&quot;font-size: 13px&quot;&gt;---&lt;/font&gt;&amp;nbsp; 100&lt;br&gt;AX&amp;nbsp;&lt;font style=&quot;font-size: 10px&quot;&gt;&amp;lt;&lt;/font&gt;&lt;font style=&quot;font-size: 13px&quot;&gt;---&lt;/font&gt;&amp;nbsp; AX / BX" style="rounded=1;whiteSpace=wrap;html=1;fontSize=12;glass=0;strokeWidth=1;shadow=0;" vertex="1" parent="WIyWlLk6GJQsqaUBKTNV-1">
          <mxGeometry x="442" y="-890.5" width="140" height="101" as="geometry" />
        </mxCell>
        <mxCell id="A8sSo03riaN5_uglDH1m-29" value="AL &amp;gt; 0Ah" style="rhombus;whiteSpace=wrap;html=1;fontSize=13;" vertex="1" parent="WIyWlLk6GJQsqaUBKTNV-1">
          <mxGeometry x="430" y="-761" width="80" height="61" as="geometry" />
        </mxCell>
        <mxCell id="A8sSo03riaN5_uglDH1m-30" value="&lt;span style=&quot;font-size: 12px&quot;&gt;AL&amp;nbsp;&lt;/span&gt;&lt;font style=&quot;font-size: 10px&quot;&gt;&amp;lt;&lt;/font&gt;&lt;font&gt;---&lt;/font&gt;&lt;span style=&quot;font-size: 12px&quot;&gt;&amp;nbsp; AL + 30h&lt;/span&gt;&lt;br style=&quot;font-size: 12px&quot;&gt;&lt;span style=&quot;font-size: 12px&quot;&gt;[DI]&amp;nbsp;&lt;/span&gt;&lt;font style=&quot;font-size: 10px&quot;&gt;&amp;lt;&lt;/font&gt;&lt;font&gt;---&lt;/font&gt;&lt;span style=&quot;font-size: 12px&quot;&gt;&amp;nbsp; AL&lt;/span&gt;&lt;br style=&quot;font-size: 12px&quot;&gt;&lt;span style=&quot;font-size: 12px&quot;&gt;SI&amp;nbsp;&lt;/span&gt;&lt;font style=&quot;font-size: 10px&quot;&gt;&amp;lt;&lt;/font&gt;&lt;font&gt;---&lt;/font&gt;&lt;span style=&quot;font-size: 12px&quot;&gt;&amp;nbsp; SI + 1&lt;/span&gt;&lt;br style=&quot;font-size: 12px&quot;&gt;&lt;span style=&quot;font-size: 12px&quot;&gt;DI&amp;nbsp;&lt;/span&gt;&lt;font style=&quot;font-size: 10px&quot;&gt;&amp;lt;&lt;/font&gt;&lt;font&gt;---&lt;/font&gt;&lt;span style=&quot;font-size: 12px&quot;&gt;&amp;nbsp; DI + 1&lt;/span&gt;&lt;br style=&quot;font-size: 12px&quot;&gt;&lt;span style=&quot;font-size: 12px&quot;&gt;CX&amp;nbsp;&lt;/span&gt;&lt;font style=&quot;font-size: 10px&quot;&gt;&amp;lt;&lt;/font&gt;&lt;font&gt;---&lt;/font&gt;&lt;span style=&quot;font-size: 12px&quot;&gt;&amp;nbsp; CX - 1&lt;/span&gt;" style="rounded=1;whiteSpace=wrap;html=1;fontSize=13;" vertex="1" parent="WIyWlLk6GJQsqaUBKTNV-1">
          <mxGeometry x="442" y="-650" width="160" height="80" as="geometry" />
        </mxCell>
        <mxCell id="A8sSo03riaN5_uglDH1m-31" value="Yes" style="rounded=0;html=1;jettySize=auto;orthogonalLoop=1;fontSize=11;endArrow=block;endFill=0;endSize=8;strokeWidth=1;shadow=0;labelBackgroundColor=none;edgeStyle=orthogonalEdgeStyle;exitX=1;exitY=0.5;exitDx=0;exitDy=0;entryX=0.5;entryY=0;entryDx=0;entryDy=0;" edge="1" parent="WIyWlLk6GJQsqaUBKTNV-1" source="A8sSo03riaN5_uglDH1m-29" target="A8sSo03riaN5_uglDH1m-34">
          <mxGeometry x="-0.2" y="5" relative="1" as="geometry">
            <mxPoint as="offset" />
            <mxPoint x="552" y="-720" as="targetPoint" />
            <Array as="points">
              <mxPoint x="551" y="-731" />
              <mxPoint x="552" y="-730" />
            </Array>
            <mxPoint x="500.000591133005" y="-761.0044827586207" as="sourcePoint" />
          </mxGeometry>
        </mxCell>
        <mxCell id="A8sSo03riaN5_uglDH1m-32" value="No" style="edgeStyle=orthogonalEdgeStyle;rounded=0;html=1;jettySize=auto;orthogonalLoop=1;fontSize=11;endArrow=block;endFill=0;endSize=8;strokeWidth=1;shadow=0;labelBackgroundColor=none;exitX=0.5;exitY=1;exitDx=0;exitDy=0;entryX=0.5;entryY=0;entryDx=0;entryDy=0;" edge="1" parent="WIyWlLk6GJQsqaUBKTNV-1" source="A8sSo03riaN5_uglDH1m-29" target="A8sSo03riaN5_uglDH1m-30">
          <mxGeometry x="-0.1297" y="10" relative="1" as="geometry">
            <mxPoint as="offset" />
            <mxPoint x="750" y="-860" as="targetPoint" />
            <Array as="points">
              <mxPoint x="470" y="-670" />
              <mxPoint x="522" y="-670" />
            </Array>
            <mxPoint x="660" y="-840" as="sourcePoint" />
          </mxGeometry>
        </mxCell>
        <mxCell id="A8sSo03riaN5_uglDH1m-33" style="edgeStyle=orthogonalEdgeStyle;rounded=0;orthogonalLoop=1;jettySize=auto;html=1;exitX=0.5;exitY=1;exitDx=0;exitDy=0;fontSize=13;" edge="1" parent="WIyWlLk6GJQsqaUBKTNV-1" source="A8sSo03riaN5_uglDH1m-34">
          <mxGeometry relative="1" as="geometry">
            <mxPoint x="520" y="-670" as="targetPoint" />
            <Array as="points">
              <mxPoint x="551" y="-670" />
              <mxPoint x="520" y="-670" />
            </Array>
          </mxGeometry>
        </mxCell>
        <mxCell id="A8sSo03riaN5_uglDH1m-34" value="AL&amp;nbsp;&lt;font style=&quot;font-size: 10px&quot;&gt;&amp;lt;&lt;/font&gt;&lt;font style=&quot;font-size: 13px&quot;&gt;---&lt;/font&gt;&amp;nbsp; AL - 0Ah" style="rounded=1;whiteSpace=wrap;html=1;fontSize=12;glass=0;strokeWidth=1;shadow=0;" vertex="1" parent="WIyWlLk6GJQsqaUBKTNV-1">
          <mxGeometry x="502" y="-710" width="100" height="20" as="geometry" />
        </mxCell>
        <mxCell id="A8sSo03riaN5_uglDH1m-35" value="" style="edgeStyle=orthogonalEdgeStyle;rounded=0;orthogonalLoop=1;jettySize=auto;html=1;fontSize=13;" edge="1" parent="WIyWlLk6GJQsqaUBKTNV-1" source="A8sSo03riaN5_uglDH1m-36" target="A8sSo03riaN5_uglDH1m-42">
          <mxGeometry relative="1" as="geometry" />
        </mxCell>
        <mxCell id="A8sSo03riaN5_uglDH1m-36" value="DI&amp;nbsp;&lt;font style=&quot;font-size: 10px&quot;&gt;&amp;lt;&lt;/font&gt;&lt;font style=&quot;font-size: 13px&quot;&gt;---&lt;/font&gt;&amp;nbsp; 30h&lt;br&gt;SI&amp;nbsp;&lt;font style=&quot;font-size: 10px&quot;&gt;&amp;lt;&lt;/font&gt;&lt;font style=&quot;font-size: 13px&quot;&gt;---&lt;/font&gt;&amp;nbsp;OFFSET NUMBER&lt;br&gt;CX&amp;nbsp;&lt;font style=&quot;font-size: 10px&quot;&gt;&amp;lt;&lt;/font&gt;&lt;font style=&quot;font-size: 13px&quot;&gt;---&lt;/font&gt;&amp;nbsp; 16" style="rounded=1;whiteSpace=wrap;html=1;fontSize=12;glass=0;strokeWidth=1;shadow=0;" vertex="1" parent="WIyWlLk6GJQsqaUBKTNV-1">
          <mxGeometry x="645" y="-990.5" width="150" height="60" as="geometry" />
        </mxCell>
        <mxCell id="A8sSo03riaN5_uglDH1m-37" value="No" style="edgeStyle=orthogonalEdgeStyle;rounded=0;html=1;jettySize=auto;orthogonalLoop=1;fontSize=11;endArrow=block;endFill=0;endSize=8;strokeWidth=1;shadow=0;labelBackgroundColor=none;exitX=0;exitY=0.5;exitDx=0;exitDy=0;" edge="1" parent="WIyWlLk6GJQsqaUBKTNV-1">
          <mxGeometry x="-0.8999" y="-10" relative="1" as="geometry">
            <mxPoint as="offset" />
            <mxPoint x="720" y="-910.5" as="targetPoint" />
            <Array as="points">
              <mxPoint x="630" y="-525" />
              <mxPoint x="630" y="-910" />
            </Array>
            <mxPoint x="680" y="-524.75" as="sourcePoint" />
          </mxGeometry>
        </mxCell>
        <mxCell id="A8sSo03riaN5_uglDH1m-38" value="ZF = 0" style="rhombus;whiteSpace=wrap;html=1;shadow=0;fontFamily=Helvetica;fontSize=12;align=center;strokeWidth=1;spacing=6;spacingTop=-4;" vertex="1" parent="WIyWlLk6GJQsqaUBKTNV-1">
          <mxGeometry x="680" y="-550" width="100" height="50.5" as="geometry" />
        </mxCell>
        <mxCell id="A8sSo03riaN5_uglDH1m-39" style="edgeStyle=orthogonalEdgeStyle;rounded=0;orthogonalLoop=1;jettySize=auto;html=1;exitX=0.5;exitY=1;exitDx=0;exitDy=0;fontSize=9;" edge="1" parent="WIyWlLk6GJQsqaUBKTNV-1" source="A8sSo03riaN5_uglDH1m-36" target="A8sSo03riaN5_uglDH1m-36">
          <mxGeometry relative="1" as="geometry" />
        </mxCell>
        <mxCell id="A8sSo03riaN5_uglDH1m-40" value="" style="edgeStyle=orthogonalEdgeStyle;rounded=0;orthogonalLoop=1;jettySize=auto;html=1;" edge="1" parent="WIyWlLk6GJQsqaUBKTNV-1" target="A8sSo03riaN5_uglDH1m-38">
          <mxGeometry relative="1" as="geometry">
            <mxPoint x="729.9800000000002" y="-580.5" as="sourcePoint" />
          </mxGeometry>
        </mxCell>
        <mxCell id="A8sSo03riaN5_uglDH1m-41" value="" style="edgeStyle=orthogonalEdgeStyle;rounded=0;orthogonalLoop=1;jettySize=auto;html=1;fontSize=13;" edge="1" parent="WIyWlLk6GJQsqaUBKTNV-1" source="A8sSo03riaN5_uglDH1m-42" target="A8sSo03riaN5_uglDH1m-43">
          <mxGeometry relative="1" as="geometry">
            <Array as="points">
              <mxPoint x="720" y="-780.5" />
              <mxPoint x="678" y="-780.5" />
            </Array>
          </mxGeometry>
        </mxCell>
        <mxCell id="A8sSo03riaN5_uglDH1m-42" value="AX&amp;nbsp;&lt;font style=&quot;font-size: 10px&quot;&gt;&amp;lt;&lt;/font&gt;&lt;font style=&quot;font-size: 13px&quot;&gt;---&lt;/font&gt;&amp;nbsp; [SI]&lt;br&gt;BX&amp;nbsp;&lt;font style=&quot;font-size: 10px&quot;&gt;&amp;lt;&lt;/font&gt;&lt;font style=&quot;font-size: 13px&quot;&gt;---&lt;/font&gt;&amp;nbsp; 17&lt;br&gt;&lt;font style=&quot;font-size: 10px&quot;&gt;AH&amp;nbsp; &amp;lt;&lt;/font&gt;&lt;font style=&quot;font-size: 13px&quot;&gt;---&amp;nbsp; 0&lt;/font&gt;&lt;br&gt;AX&amp;nbsp;&lt;font style=&quot;font-size: 10px&quot;&gt;&amp;lt;&lt;/font&gt;&lt;font style=&quot;font-size: 13px&quot;&gt;---&lt;/font&gt;&amp;nbsp; AX * BX&lt;br&gt;BX&amp;nbsp;&lt;font style=&quot;font-size: 10px&quot;&gt;&amp;lt;&lt;/font&gt;&lt;font style=&quot;font-size: 13px&quot;&gt;---&lt;/font&gt;&amp;nbsp; 10&lt;br&gt;AX&amp;nbsp;&lt;font style=&quot;font-size: 10px&quot;&gt;&amp;lt;&lt;/font&gt;&lt;font style=&quot;font-size: 13px&quot;&gt;---&lt;/font&gt;&amp;nbsp; AX / BX" style="rounded=1;whiteSpace=wrap;html=1;fontSize=12;glass=0;strokeWidth=1;shadow=0;" vertex="1" parent="WIyWlLk6GJQsqaUBKTNV-1">
          <mxGeometry x="650" y="-891" width="140" height="101" as="geometry" />
        </mxCell>
        <mxCell id="A8sSo03riaN5_uglDH1m-43" value="AL &amp;gt; 0Ah" style="rhombus;whiteSpace=wrap;html=1;fontSize=13;" vertex="1" parent="WIyWlLk6GJQsqaUBKTNV-1">
          <mxGeometry x="638" y="-751" width="80" height="61" as="geometry" />
        </mxCell>
        <mxCell id="A8sSo03riaN5_uglDH1m-44" value="&lt;span style=&quot;font-size: 12px&quot;&gt;AL&amp;nbsp;&lt;/span&gt;&lt;font style=&quot;font-size: 10px&quot;&gt;&amp;lt;&lt;/font&gt;&lt;font&gt;---&lt;/font&gt;&lt;span style=&quot;font-size: 12px&quot;&gt;&amp;nbsp; AL + 30h&lt;/span&gt;&lt;br style=&quot;font-size: 12px&quot;&gt;&lt;span style=&quot;font-size: 12px&quot;&gt;[DI]&amp;nbsp;&lt;/span&gt;&lt;font style=&quot;font-size: 10px&quot;&gt;&amp;lt;&lt;/font&gt;&lt;font&gt;---&lt;/font&gt;&lt;span style=&quot;font-size: 12px&quot;&gt;&amp;nbsp; AL&lt;/span&gt;&lt;br style=&quot;font-size: 12px&quot;&gt;&lt;span style=&quot;font-size: 12px&quot;&gt;SI&amp;nbsp;&lt;/span&gt;&lt;font style=&quot;font-size: 10px&quot;&gt;&amp;lt;&lt;/font&gt;&lt;font&gt;---&lt;/font&gt;&lt;span style=&quot;font-size: 12px&quot;&gt;&amp;nbsp; SI + 1&lt;/span&gt;&lt;br style=&quot;font-size: 12px&quot;&gt;&lt;span style=&quot;font-size: 12px&quot;&gt;DI&amp;nbsp;&lt;/span&gt;&lt;font style=&quot;font-size: 10px&quot;&gt;&amp;lt;&lt;/font&gt;&lt;font&gt;---&lt;/font&gt;&lt;span style=&quot;font-size: 12px&quot;&gt;&amp;nbsp; DI + 1&lt;/span&gt;&lt;br style=&quot;font-size: 12px&quot;&gt;&lt;span style=&quot;font-size: 12px&quot;&gt;CX&amp;nbsp;&lt;/span&gt;&lt;font style=&quot;font-size: 10px&quot;&gt;&amp;lt;&lt;/font&gt;&lt;font&gt;---&lt;/font&gt;&lt;span style=&quot;font-size: 12px&quot;&gt;&amp;nbsp; CX - 1&lt;/span&gt;" style="rounded=1;whiteSpace=wrap;html=1;fontSize=13;" vertex="1" parent="WIyWlLk6GJQsqaUBKTNV-1">
          <mxGeometry x="650" y="-650.5" width="160" height="80" as="geometry" />
        </mxCell>
        <mxCell id="A8sSo03riaN5_uglDH1m-45" value="Yes" style="rounded=0;html=1;jettySize=auto;orthogonalLoop=1;fontSize=11;endArrow=block;endFill=0;endSize=8;strokeWidth=1;shadow=0;labelBackgroundColor=none;edgeStyle=orthogonalEdgeStyle;exitX=1;exitY=0.5;exitDx=0;exitDy=0;entryX=0.5;entryY=1;entryDx=0;entryDy=0;" edge="1" parent="WIyWlLk6GJQsqaUBKTNV-1">
          <mxGeometry x="-0.5166" y="-10" relative="1" as="geometry">
            <mxPoint as="offset" />
            <mxPoint x="768" y="-741" as="targetPoint" />
            <Array as="points">
              <mxPoint x="768" y="-721" />
            </Array>
            <mxPoint x="718" y="-720.75" as="sourcePoint" />
          </mxGeometry>
        </mxCell>
        <mxCell id="A8sSo03riaN5_uglDH1m-46" value="No" style="edgeStyle=orthogonalEdgeStyle;rounded=0;html=1;jettySize=auto;orthogonalLoop=1;fontSize=11;endArrow=block;endFill=0;endSize=8;strokeWidth=1;shadow=0;labelBackgroundColor=none;exitX=0.5;exitY=1;exitDx=0;exitDy=0;entryX=0.5;entryY=0;entryDx=0;entryDy=0;" edge="1" parent="WIyWlLk6GJQsqaUBKTNV-1" source="A8sSo03riaN5_uglDH1m-43" target="A8sSo03riaN5_uglDH1m-44">
          <mxGeometry x="-0.1297" y="10" relative="1" as="geometry">
            <mxPoint as="offset" />
            <mxPoint x="958" y="-860.5" as="targetPoint" />
            <Array as="points">
              <mxPoint x="678" y="-670.5" />
              <mxPoint x="730" y="-670.5" />
            </Array>
            <mxPoint x="868" y="-840.5" as="sourcePoint" />
          </mxGeometry>
        </mxCell>
        <mxCell id="A8sSo03riaN5_uglDH1m-47" style="edgeStyle=orthogonalEdgeStyle;rounded=0;orthogonalLoop=1;jettySize=auto;html=1;fontSize=13;" edge="1" parent="WIyWlLk6GJQsqaUBKTNV-1">
          <mxGeometry relative="1" as="geometry">
            <mxPoint x="678" y="-770" as="targetPoint" />
            <mxPoint x="768" y="-761" as="sourcePoint" />
            <Array as="points">
              <mxPoint x="768" y="-770" />
            </Array>
          </mxGeometry>
        </mxCell>
        <mxCell id="A8sSo03riaN5_uglDH1m-48" value="Yes" style="rounded=0;html=1;jettySize=auto;orthogonalLoop=1;fontSize=11;endArrow=block;endFill=0;endSize=8;strokeWidth=1;shadow=0;labelBackgroundColor=none;edgeStyle=orthogonalEdgeStyle;entryX=0;entryY=0.5;entryDx=0;entryDy=0;" edge="1" parent="WIyWlLk6GJQsqaUBKTNV-1" target="A8sSo03riaN5_uglDH1m-36">
          <mxGeometry x="-0.9269" y="20" relative="1" as="geometry">
            <mxPoint as="offset" />
            <mxPoint x="634" y="-940" as="targetPoint" />
            <Array as="points">
              <mxPoint x="610" y="-490" />
              <mxPoint x="610" y="-960" />
            </Array>
            <mxPoint x="571.9999999999998" y="-490" as="sourcePoint" />
          </mxGeometry>
        </mxCell>
        <mxCell id="A8sSo03riaN5_uglDH1m-49" value="Yes" style="rounded=0;html=1;jettySize=auto;orthogonalLoop=1;fontSize=11;endArrow=block;endFill=0;endSize=8;strokeWidth=1;shadow=0;labelBackgroundColor=none;edgeStyle=orthogonalEdgeStyle;entryX=0.5;entryY=0;entryDx=0;entryDy=0;exitX=0.5;exitY=1;exitDx=0;exitDy=0;" edge="1" parent="WIyWlLk6GJQsqaUBKTNV-1" source="A8sSo03riaN5_uglDH1m-38" target="A8sSo03riaN5_uglDH1m-12">
          <mxGeometry x="-0.0256" y="20" relative="1" as="geometry">
            <mxPoint as="offset" />
            <mxPoint x="644" y="-440.0000000000001" as="targetPoint" />
            <Array as="points">
              <mxPoint x="730" y="-490" />
              <mxPoint x="730" y="-490" />
            </Array>
            <mxPoint x="602" y="-460.5" as="sourcePoint" />
          </mxGeometry>
        </mxCell>
        <mxCell id="A8sSo03riaN5_uglDH1m-50" value="" style="edgeStyle=orthogonalEdgeStyle;rounded=0;orthogonalLoop=1;jettySize=auto;html=1;" edge="1" parent="WIyWlLk6GJQsqaUBKTNV-1" source="A8sSo03riaN5_uglDH1m-51" target="A8sSo03riaN5_uglDH1m-53">
          <mxGeometry relative="1" as="geometry" />
        </mxCell>
        <mxCell id="A8sSo03riaN5_uglDH1m-51" value="combine" style="ellipse;whiteSpace=wrap;html=1;" vertex="1" parent="WIyWlLk6GJQsqaUBKTNV-1">
          <mxGeometry x="65" y="-520" width="120" height="40" as="geometry" />
        </mxCell>
        <mxCell id="A8sSo03riaN5_uglDH1m-52" value="" style="edgeStyle=orthogonalEdgeStyle;rounded=0;orthogonalLoop=1;jettySize=auto;html=1;" edge="1" parent="WIyWlLk6GJQsqaUBKTNV-1" source="A8sSo03riaN5_uglDH1m-53" target="A8sSo03riaN5_uglDH1m-55">
          <mxGeometry relative="1" as="geometry" />
        </mxCell>
        <mxCell id="A8sSo03riaN5_uglDH1m-53" value="AL&amp;nbsp;&lt;font style=&quot;font-size: 10px&quot;&gt;&amp;lt;&lt;/font&gt;&lt;font style=&quot;font-size: 13px&quot;&gt;---&lt;/font&gt;&amp;nbsp; [DI-3]&lt;br&gt;AL&amp;nbsp;&lt;font style=&quot;font-size: 10px&quot;&gt;&amp;lt;&lt;/font&gt;&lt;font style=&quot;font-size: 13px&quot;&gt;---&lt;/font&gt;&amp;nbsp; AL - 30h&lt;br&gt;AH&amp;nbsp;&lt;font style=&quot;font-size: 10px&quot;&gt;&amp;lt;&lt;/font&gt;&lt;font style=&quot;font-size: 13px&quot;&gt;---&lt;/font&gt;&amp;nbsp; 100d&lt;br&gt;AL&amp;nbsp;&lt;font style=&quot;font-size: 10px&quot;&gt;&amp;lt;&lt;/font&gt;&lt;font style=&quot;font-size: 13px&quot;&gt;---&lt;/font&gt;&amp;nbsp; AH * AL&lt;br&gt;[SI]&amp;nbsp;&lt;font style=&quot;font-size: 10px&quot;&gt;&amp;lt;&lt;/font&gt;&lt;font style=&quot;font-size: 13px&quot;&gt;---&lt;/font&gt;&amp;nbsp; [SI] + AL" style="rounded=1;whiteSpace=wrap;html=1;fontSize=12;glass=0;strokeWidth=1;shadow=0;" vertex="1" parent="WIyWlLk6GJQsqaUBKTNV-1">
          <mxGeometry x="67.5" y="-460" width="115" height="100" as="geometry" />
        </mxCell>
        <mxCell id="A8sSo03riaN5_uglDH1m-54" value="" style="edgeStyle=orthogonalEdgeStyle;rounded=0;orthogonalLoop=1;jettySize=auto;html=1;" edge="1" parent="WIyWlLk6GJQsqaUBKTNV-1" source="A8sSo03riaN5_uglDH1m-55" target="A8sSo03riaN5_uglDH1m-57">
          <mxGeometry relative="1" as="geometry" />
        </mxCell>
        <mxCell id="A8sSo03riaN5_uglDH1m-55" value="AL&amp;nbsp;&lt;font style=&quot;font-size: 10px&quot;&gt;&amp;lt;&lt;/font&gt;&lt;font style=&quot;font-size: 13px&quot;&gt;---&lt;/font&gt;&amp;nbsp; [DI-2]&lt;br&gt;AL&amp;nbsp;&lt;font style=&quot;font-size: 10px&quot;&gt;&amp;lt;&lt;/font&gt;&lt;font style=&quot;font-size: 13px&quot;&gt;---&lt;/font&gt;&amp;nbsp; AL - 30h&lt;br&gt;AH&amp;nbsp;&lt;font style=&quot;font-size: 10px&quot;&gt;&amp;lt;&lt;/font&gt;&lt;font style=&quot;font-size: 13px&quot;&gt;---&lt;/font&gt;&amp;nbsp; 10d&lt;br&gt;AL&amp;nbsp;&lt;font style=&quot;font-size: 10px&quot;&gt;&amp;lt;&lt;/font&gt;&lt;font style=&quot;font-size: 13px&quot;&gt;---&lt;/font&gt;&amp;nbsp; AH * AL&lt;br&gt;[SI]&amp;nbsp;&lt;font style=&quot;font-size: 10px&quot;&gt;&amp;lt;&lt;/font&gt;&lt;font style=&quot;font-size: 13px&quot;&gt;---&lt;/font&gt;&amp;nbsp; [SI] + AL" style="rounded=1;whiteSpace=wrap;html=1;fontSize=12;glass=0;strokeWidth=1;shadow=0;" vertex="1" parent="WIyWlLk6GJQsqaUBKTNV-1">
          <mxGeometry x="67.5" y="-335" width="115" height="100" as="geometry" />
        </mxCell>
        <mxCell id="A8sSo03riaN5_uglDH1m-56" value="" style="edgeStyle=orthogonalEdgeStyle;rounded=0;orthogonalLoop=1;jettySize=auto;html=1;" edge="1" parent="WIyWlLk6GJQsqaUBKTNV-1" source="A8sSo03riaN5_uglDH1m-57" target="A8sSo03riaN5_uglDH1m-58">
          <mxGeometry relative="1" as="geometry" />
        </mxCell>
        <mxCell id="A8sSo03riaN5_uglDH1m-57" value="AL&amp;nbsp;&lt;font style=&quot;font-size: 10px&quot;&gt;&amp;lt;&lt;/font&gt;&lt;font style=&quot;font-size: 13px&quot;&gt;---&lt;/font&gt;&amp;nbsp; [DI-1]&lt;br&gt;AL&amp;nbsp;&lt;font style=&quot;font-size: 10px&quot;&gt;&amp;lt;&lt;/font&gt;&lt;font style=&quot;font-size: 13px&quot;&gt;---&lt;/font&gt;&amp;nbsp; AL - 30h&lt;br&gt;[SI]&amp;nbsp;&lt;font style=&quot;font-size: 10px&quot;&gt;&amp;lt;&lt;/font&gt;&lt;font style=&quot;font-size: 13px&quot;&gt;---&lt;/font&gt;&amp;nbsp; [SI] + AL" style="rounded=1;whiteSpace=wrap;html=1;fontSize=12;glass=0;strokeWidth=1;shadow=0;" vertex="1" parent="WIyWlLk6GJQsqaUBKTNV-1">
          <mxGeometry x="67.5" y="-210" width="115" height="60" as="geometry" />
        </mxCell>
        <mxCell id="A8sSo03riaN5_uglDH1m-58" value="END" style="ellipse;whiteSpace=wrap;html=1;" vertex="1" parent="WIyWlLk6GJQsqaUBKTNV-1">
          <mxGeometry x="65" y="-124" width="120" height="40" as="geometry" />
        </mxCell>
        <mxCell id="A8sSo03riaN5_uglDH1m-59" value="string: db &quot;This code is for Midterm 2 Pre-work of ELE336 Course.&quot;, 0Dh, 0Ah,&#39;$&#39;" style="rounded=0;whiteSpace=wrap;html=1;" vertex="1" parent="WIyWlLk6GJQsqaUBKTNV-1">
          <mxGeometry x="379.5" y="-1159" width="440" height="29" as="geometry" />
        </mxCell>
        <mxCell id="A8sSo03riaN5_uglDH1m-60" value="question: db &quot;Enter an integer between 0 and 120, as X-pixel value : $&quot;" style="rounded=0;whiteSpace=wrap;html=1;" vertex="1" parent="WIyWlLk6GJQsqaUBKTNV-1">
          <mxGeometry x="409.5" y="-1120" width="380" height="30" as="geometry" />
        </mxCell>
        <mxCell id="A8sSo03riaN5_uglDH1m-61" value="questionC: db &quot;Please make it three digits!&quot;, 0Dh, 0Ah,&#39;$&#39;" style="rounded=0;whiteSpace=wrap;html=1;" vertex="1" parent="WIyWlLk6GJQsqaUBKTNV-1">
          <mxGeometry x="440" y="-1080" width="316" height="20" as="geometry" />
        </mxCell>
      </root>
    </mxGraphModel>
  </diagram>
</mxfile>
